<svg width="375" height="812" viewBox="0 0 375 812" fill="none" xmlns="http://www.w3.org/2000/svg">
	<g clip-path="url(#clip0_1_3715)">
		<rect width="375" height="812" fill="white"/>
		<g filter="url(#filter0_f_1_3715)">
			<rect x="0" y="0" width="205" height="105" fill="#0EBE7E" fill-opacity="0.3"/>
		</g>
		<g filter="url(#filter1_f_1_3715)">
			<circle cx="8" cy="75" r="108" fill="#61CEFF" fill-opacity="0.72"/>
		</g>
<g clip-path="url(#clip1_1_3715)">
<path d="M217.951 370.491H206.509V359.049C206.509 356.266 204.243 354 201.46 354H174.536C171.753 354 169.488 356.266 169.488 359.049V370.491H158.049C155.266 370.491 153 372.753 153 375.54V402.464C153 405.247 155.266 407.512 158.049 407.512H169.491V418.955C169.491 421.738 171.753 424.004 174.54 424.004H201.464C204.247 424.004 206.512 421.738 206.512 418.955V407.512H217.955C220.738 407.512 223.004 405.247 223.004 402.464V375.54C223 372.753 220.734 370.491 217.951 370.491ZM217.613 402.125H206.509V381.258H201.125V418.613H174.875V407.509H195.738V402.125H158.383V375.875H169.488V396.738H174.871V359.383H201.118V370.488H180.262V375.871H217.617V402.125H217.613Z" fill="url(#paint0_linear_1_3715)"/>
</g>
<path d="M115.972 459C115.789 459 115.639 458.942 115.522 458.825C115.406 458.708 115.347 458.558 115.347 458.375V442.125C115.347 441.942 115.406 441.792 115.522 441.675C115.639 441.558 115.789 441.5 115.972 441.5H119.197C119.381 441.5 119.531 441.558 119.647 441.675C119.764 441.792 119.822 441.942 119.822 442.125V448.15H125.997V442.125C125.997 441.942 126.056 441.792 126.172 441.675C126.289 441.558 126.439 441.5 126.622 441.5H129.847C130.031 441.5 130.181 441.558 130.297 441.675C130.414 441.792 130.472 441.942 130.472 442.125V458.375C130.472 458.558 130.414 458.708 130.297 458.825C130.181 458.942 130.031 459 129.847 459H126.622C126.439 459 126.289 458.942 126.172 458.825C126.056 458.708 125.997 458.558 125.997 458.375V452.15H119.822V458.375C119.822 458.558 119.764 458.708 119.647 458.825C119.531 458.942 119.381 459 119.197 459H115.972ZM139.4 459.25C137.433 459.25 135.867 458.717 134.7 457.65C133.533 456.583 132.925 455 132.875 452.9C132.875 452.783 132.875 452.633 132.875 452.45C132.875 452.267 132.875 452.125 132.875 452.025C132.925 450.708 133.217 449.583 133.75 448.65C134.3 447.7 135.05 446.983 136 446.5C136.967 446 138.092 445.75 139.375 445.75C140.842 445.75 142.05 446.042 143 446.625C143.967 447.208 144.692 448 145.175 449C145.658 450 145.9 451.142 145.9 452.425V453.025C145.9 453.208 145.833 453.358 145.7 453.475C145.583 453.592 145.442 453.65 145.275 453.65H137.275C137.275 453.667 137.275 453.692 137.275 453.725C137.275 453.758 137.275 453.792 137.275 453.825C137.292 454.308 137.375 454.75 137.525 455.15C137.675 455.55 137.908 455.867 138.225 456.1C138.542 456.333 138.925 456.45 139.375 456.45C139.708 456.45 139.983 456.4 140.2 456.3C140.433 456.183 140.625 456.058 140.775 455.925C140.925 455.775 141.042 455.65 141.125 455.55C141.275 455.383 141.392 455.283 141.475 455.25C141.575 455.2 141.725 455.175 141.925 455.175H145.025C145.192 455.175 145.325 455.225 145.425 455.325C145.542 455.408 145.592 455.533 145.575 455.7C145.558 455.983 145.417 456.325 145.15 456.725C144.883 457.125 144.492 457.525 143.975 457.925C143.475 458.308 142.842 458.625 142.075 458.875C141.308 459.125 140.417 459.25 139.4 459.25ZM137.275 451.175H141.5V451.125C141.5 450.592 141.417 450.125 141.25 449.725C141.1 449.325 140.858 449.017 140.525 448.8C140.208 448.583 139.825 448.475 139.375 448.475C138.925 448.475 138.542 448.583 138.225 448.8C137.925 449.017 137.692 449.325 137.525 449.725C137.358 450.125 137.275 450.592 137.275 451.125V451.175ZM151.844 459.25C150.944 459.25 150.136 459.083 149.419 458.75C148.719 458.4 148.161 457.933 147.744 457.35C147.327 456.767 147.119 456.108 147.119 455.375C147.119 454.192 147.602 453.258 148.569 452.575C149.536 451.875 150.819 451.4 152.419 451.15L155.544 450.675V450.325C155.544 449.725 155.419 449.267 155.169 448.95C154.919 448.633 154.461 448.475 153.794 448.475C153.327 448.475 152.944 448.567 152.644 448.75C152.361 448.933 152.136 449.183 151.969 449.5C151.819 449.717 151.611 449.825 151.344 449.825H148.544C148.361 449.825 148.219 449.775 148.119 449.675C148.019 449.558 147.977 449.425 147.994 449.275C147.994 448.975 148.102 448.633 148.319 448.25C148.552 447.85 148.902 447.458 149.369 447.075C149.836 446.692 150.436 446.375 151.169 446.125C151.902 445.875 152.786 445.75 153.819 445.75C154.902 445.75 155.827 445.875 156.594 446.125C157.361 446.375 157.977 446.725 158.444 447.175C158.927 447.625 159.286 448.158 159.519 448.775C159.752 449.375 159.869 450.042 159.869 450.775V458.375C159.869 458.558 159.802 458.708 159.669 458.825C159.552 458.942 159.411 459 159.244 459H156.344C156.161 459 156.011 458.942 155.894 458.825C155.777 458.708 155.719 458.558 155.719 458.375V457.5C155.502 457.817 155.211 458.108 154.844 458.375C154.477 458.642 154.044 458.85 153.544 459C153.061 459.167 152.494 459.25 151.844 459.25ZM153.019 456.4C153.502 456.4 153.936 456.3 154.319 456.1C154.719 455.883 155.027 455.558 155.244 455.125C155.477 454.675 155.594 454.117 155.594 453.45V453.1L153.469 453.475C152.686 453.608 152.111 453.817 151.744 454.1C151.394 454.367 151.219 454.683 151.219 455.05C151.219 455.333 151.302 455.575 151.469 455.775C151.636 455.975 151.852 456.133 152.119 456.25C152.386 456.35 152.686 456.4 153.019 456.4ZM163.015 459C162.832 459 162.682 458.942 162.565 458.825C162.448 458.708 162.39 458.558 162.39 458.375V441.875C162.39 441.692 162.448 441.542 162.565 441.425C162.682 441.308 162.832 441.25 163.015 441.25H165.965C166.148 441.25 166.298 441.308 166.415 441.425C166.532 441.542 166.59 441.692 166.59 441.875V458.375C166.59 458.558 166.532 458.708 166.415 458.825C166.298 458.942 166.148 459 165.965 459H163.015ZM175.893 459C174.827 459 173.902 458.833 173.118 458.5C172.352 458.15 171.76 457.617 171.343 456.9C170.927 456.167 170.718 455.225 170.718 454.075V449.275H168.768C168.585 449.275 168.427 449.217 168.293 449.1C168.177 448.983 168.118 448.833 168.118 448.65V446.625C168.118 446.442 168.177 446.292 168.293 446.175C168.427 446.058 168.585 446 168.768 446H170.718V441.875C170.718 441.692 170.777 441.542 170.893 441.425C171.027 441.308 171.177 441.25 171.343 441.25H174.243C174.427 441.25 174.577 441.308 174.693 441.425C174.81 441.542 174.868 441.692 174.868 441.875V446H177.993C178.177 446 178.327 446.058 178.443 446.175C178.56 446.292 178.618 446.442 178.618 446.625V448.65C178.618 448.833 178.56 448.983 178.443 449.1C178.327 449.217 178.177 449.275 177.993 449.275H174.868V453.725C174.868 454.292 174.977 454.742 175.193 455.075C175.41 455.408 175.777 455.575 176.293 455.575H178.218C178.402 455.575 178.552 455.633 178.668 455.75C178.785 455.867 178.843 456.017 178.843 456.2V458.375C178.843 458.558 178.785 458.708 178.668 458.825C178.552 458.942 178.402 459 178.218 459H175.893ZM181.238 459C181.055 459 180.905 458.942 180.788 458.825C180.672 458.708 180.613 458.558 180.613 458.375V441.875C180.613 441.692 180.672 441.542 180.788 441.425C180.905 441.308 181.055 441.25 181.238 441.25H184.438C184.622 441.25 184.772 441.308 184.888 441.425C185.005 441.542 185.063 441.692 185.063 441.875V447.45C185.513 446.933 186.063 446.525 186.713 446.225C187.38 445.908 188.147 445.75 189.013 445.75C189.98 445.75 190.838 445.967 191.588 446.4C192.355 446.833 192.955 447.475 193.388 448.325C193.822 449.158 194.038 450.183 194.038 451.4V458.375C194.038 458.558 193.98 458.708 193.863 458.825C193.747 458.942 193.597 459 193.413 459H190.188C190.022 459 189.872 458.942 189.738 458.825C189.622 458.708 189.563 458.558 189.563 458.375V451.55C189.563 450.767 189.372 450.167 188.988 449.75C188.622 449.317 188.072 449.1 187.338 449.1C186.655 449.1 186.105 449.317 185.688 449.75C185.272 450.167 185.063 450.767 185.063 451.55V458.375C185.063 458.558 185.005 458.708 184.888 458.825C184.772 458.942 184.622 459 184.438 459H181.238ZM208.395 459.25C206.729 459.25 205.345 459.017 204.245 458.55C203.145 458.067 202.312 457.442 201.745 456.675C201.179 455.908 200.879 455.092 200.845 454.225C200.845 454.092 200.895 453.975 200.995 453.875C201.112 453.758 201.245 453.7 201.395 453.7H204.545C204.779 453.7 204.954 453.742 205.07 453.825C205.204 453.908 205.32 454.017 205.42 454.15C205.554 454.4 205.737 454.642 205.97 454.875C206.22 455.108 206.537 455.3 206.92 455.45C207.32 455.583 207.812 455.65 208.395 455.65C209.362 455.65 210.087 455.5 210.57 455.2C211.07 454.9 211.32 454.492 211.32 453.975C211.32 453.608 211.187 453.308 210.92 453.075C210.654 452.825 210.22 452.608 209.62 452.425C209.037 452.225 208.254 452.025 207.27 451.825C206.004 451.558 204.92 451.217 204.02 450.8C203.137 450.367 202.462 449.808 201.995 449.125C201.529 448.425 201.295 447.558 201.295 446.525C201.295 445.508 201.579 444.6 202.145 443.8C202.729 443 203.537 442.375 204.57 441.925C205.604 441.475 206.829 441.25 208.245 441.25C209.395 441.25 210.404 441.4 211.27 441.7C212.154 442 212.895 442.4 213.495 442.9C214.095 443.4 214.545 443.933 214.845 444.5C215.162 445.05 215.329 445.592 215.345 446.125C215.345 446.258 215.295 446.383 215.195 446.5C215.095 446.6 214.97 446.65 214.82 446.65H211.52C211.337 446.65 211.179 446.617 211.045 446.55C210.912 446.483 210.795 446.375 210.695 446.225C210.595 445.858 210.329 445.542 209.895 445.275C209.479 444.992 208.929 444.85 208.245 444.85C207.512 444.85 206.937 444.983 206.52 445.25C206.12 445.5 205.92 445.892 205.92 446.425C205.92 446.758 206.029 447.05 206.245 447.3C206.479 447.55 206.854 447.767 207.37 447.95C207.904 448.133 208.629 448.325 209.545 448.525C211.062 448.808 212.287 449.167 213.22 449.6C214.154 450.017 214.837 450.567 215.27 451.25C215.704 451.917 215.92 452.758 215.92 453.775C215.92 454.908 215.595 455.892 214.945 456.725C214.312 457.542 213.429 458.167 212.295 458.6C211.162 459.033 209.862 459.25 208.395 459.25ZM220.2 463.75C220.05 463.75 219.925 463.7 219.825 463.6C219.725 463.5 219.675 463.375 219.675 463.225C219.675 463.192 219.675 463.142 219.675 463.075C219.691 463.025 219.716 462.967 219.75 462.9L221.7 458.2L216.9 446.85C216.85 446.733 216.825 446.633 216.825 446.55C216.858 446.4 216.925 446.275 217.025 446.175C217.125 446.058 217.25 446 217.4 446H220.25C220.466 446 220.625 446.058 220.725 446.175C220.841 446.275 220.916 446.392 220.95 446.525L223.825 453.8L226.75 446.525C226.816 446.392 226.9 446.275 227 446.175C227.116 446.058 227.283 446 227.5 446H230.3C230.45 446 230.575 446.058 230.675 446.175C230.791 446.275 230.85 446.392 230.85 446.525C230.85 446.608 230.825 446.717 230.775 446.85L223.7 463.225C223.65 463.358 223.566 463.475 223.45 463.575C223.333 463.692 223.166 463.75 222.95 463.75H220.2ZM233.017 459C232.833 459 232.683 458.942 232.567 458.825C232.45 458.708 232.392 458.558 232.392 458.375V446.625C232.392 446.442 232.45 446.292 232.567 446.175C232.683 446.058 232.833 446 233.017 446H235.892C236.075 446 236.225 446.058 236.342 446.175C236.458 446.292 236.517 446.442 236.517 446.625V447.575C236.95 447.058 237.517 446.625 238.217 446.275C238.917 445.925 239.742 445.75 240.692 445.75C241.658 445.75 242.508 445.967 243.242 446.4C243.992 446.833 244.575 447.475 244.992 448.325C245.425 449.158 245.642 450.183 245.642 451.4V458.375C245.642 458.558 245.575 458.708 245.442 458.825C245.325 458.942 245.183 459 245.017 459H241.867C241.7 459 241.55 458.942 241.417 458.825C241.3 458.708 241.242 458.558 241.242 458.375V451.55C241.242 450.767 241.05 450.167 240.667 449.75C240.3 449.317 239.75 449.1 239.017 449.1C238.333 449.1 237.783 449.317 237.367 449.75C236.967 450.167 236.767 450.767 236.767 451.55V458.375C236.767 458.558 236.7 458.708 236.567 458.825C236.45 458.942 236.308 459 236.142 459H233.017ZM254.107 459.25C252.873 459.25 251.782 459.025 250.832 458.575C249.882 458.125 249.123 457.475 248.557 456.625C248.007 455.758 247.707 454.725 247.657 453.525C247.64 453.258 247.632 452.925 247.632 452.525C247.632 452.108 247.64 451.767 247.657 451.5C247.707 450.283 248.007 449.25 248.557 448.4C249.107 447.533 249.857 446.875 250.807 446.425C251.773 445.975 252.873 445.75 254.107 445.75C255.257 445.75 256.24 445.917 257.057 446.25C257.873 446.567 258.54 446.967 259.057 447.45C259.573 447.933 259.957 448.433 260.207 448.95C260.473 449.45 260.615 449.892 260.632 450.275C260.648 450.442 260.59 450.592 260.457 450.725C260.323 450.842 260.173 450.9 260.007 450.9H256.832C256.648 450.9 256.507 450.858 256.407 450.775C256.307 450.692 256.215 450.567 256.132 450.4C255.932 449.883 255.673 449.517 255.357 449.3C255.057 449.083 254.665 448.975 254.182 448.975C253.515 448.975 252.998 449.192 252.632 449.625C252.282 450.058 252.09 450.725 252.057 451.625C252.04 452.292 252.04 452.883 252.057 453.4C252.09 454.317 252.282 454.983 252.632 455.4C252.998 455.817 253.515 456.025 254.182 456.025C254.698 456.025 255.107 455.917 255.407 455.7C255.707 455.483 255.948 455.117 256.132 454.6C256.215 454.433 256.307 454.308 256.407 454.225C256.507 454.142 256.648 454.1 256.832 454.1H260.007C260.173 454.1 260.323 454.167 260.457 454.3C260.59 454.417 260.648 454.558 260.632 454.725C260.615 455.008 260.532 455.342 260.382 455.725C260.232 456.092 259.998 456.483 259.682 456.9C259.365 457.317 258.948 457.708 258.432 458.075C257.932 458.425 257.323 458.708 256.607 458.925C255.89 459.142 255.057 459.25 254.107 459.25Z" fill="#222222"/>
</g>
<defs>
<filter id="filter0_f_1_3715" x="81" y="528" width="458" height="458" filterUnits="userSpaceOnUse" color-interpolation-filters="sRGB">
<feFlood flood-opacity="0" result="BackgroundImageFix"/>
<feBlend mode="normal" in="SourceGraphic" in2="BackgroundImageFix" result="shape"/>
<feGaussianBlur stdDeviation="60.5" result="effect1_foregroundBlur_1_3715"/>
</filter>
<filter id="filter1_f_1_3715" x="-369" y="-302" width="754" height="754" filterUnits="userSpaceOnUse" color-interpolation-filters="sRGB">
<feFlood flood-opacity="0" result="BackgroundImageFix"/>
<feBlend mode="normal" in="SourceGraphic" in2="BackgroundImageFix" result="shape"/>
<feGaussianBlur stdDeviation="134.5" result="effect1_foregroundBlur_1_3715"/>
</filter>
<linearGradient id="paint0_linear_1_3715" x1="153" y1="357.59" x2="229.397" y2="372.455" gradientUnits="userSpaceOnUse">
<stop stop-color="#0EBE7E"/>
<stop offset="1" stop-color="#07D9AD"/>
</linearGradient>
<clipPath id="clip0_1_3715">
<rect width="375" height="812" fill="white"/>
</clipPath>
<clipPath id="clip1_1_3715">
<rect width="70" height="70" fill="white" transform="translate(153 354)"/>
</clipPath>
</defs>
</svg>
