<svg width="29" height="29" viewBox="0 0 29 29" fill="none" xmlns="http://www.w3.org/2000/svg">
<path d="M21.5694 7.5313C20.8888 5.44536 21.3663 3.20118 22.0985 1.13274C22.1839 0.891739 22.1566 0.622983 22.02 0.40322C21.8649 0.152645 21.5919 0 21.2973 0H7.71564C7.4211 0 7.14808 0.152645 6.99294 0.40322C6.83779 0.653795 6.82369 0.96656 6.95561 1.2296C7.89819 3.11384 8.09231 5.32347 7.50906 7.32887C6.94734 9.10107 6.12506 10.7165 5.32941 12.2779C5.08443 12.7585 4.84444 13.2321 4.61328 13.704L8.44173 15.6183C12.1855 17.4901 16.8153 17.4901 20.559 15.6183L24.3968 13.6996C24.1687 13.2352 23.9317 12.7695 23.6903 12.2971C22.9222 10.7958 22.1274 9.24171 21.5694 7.5313ZM14.5002 15.3494C14.031 15.3494 13.6506 14.969 13.6506 14.4998C13.6506 14.0305 14.031 13.6502 14.5002 13.6502C14.9695 13.6502 15.3499 14.0305 15.3499 14.4998C15.3499 14.969 14.9695 15.3494 14.5002 15.3494Z" fill="white"/>
<path d="M0.849634 6.85343H2.25374L2.0048 7.10236C1.67293 7.43422 1.67293 7.9719 2.0048 8.30375C2.33666 8.63561 2.87437 8.63561 3.20624 8.30375L4.90551 6.60456C5.23737 6.2727 5.23737 5.73502 4.90551 5.40317L3.20624 3.70397C2.87437 3.37211 2.33666 3.37211 2.0048 3.70397C1.67293 4.03582 1.67293 4.5735 2.0048 4.90536L2.25374 5.15423H0.849634C0.380013 5.15423 0 5.53423 0 6.00383C0 6.47343 0.380013 6.85343 0.849634 6.85343Z" fill="white"/>
<path d="M28.1505 5.15429H26.7464L26.9953 4.90536C27.3272 4.5735 27.3272 4.03582 26.9953 3.70397C26.6634 3.37211 26.1257 3.37211 25.7939 3.70397L24.0946 5.40317C23.7627 5.73502 23.7627 6.2727 24.0946 6.60456L25.7939 8.30375C26.1257 8.63561 26.6634 8.63561 26.9953 8.30375C27.3272 7.9719 27.3272 7.43422 26.9953 7.10236L26.7464 6.85349H28.1505C28.6201 6.85349 29.0001 6.47349 29.0001 6.00389C29.0001 5.53429 28.6201 5.15429 28.1505 5.15429Z" fill="white"/>
<path d="M25.1035 15.2461L21.3191 17.1381C19.2125 18.191 16.8553 18.7477 14.5005 18.7477C12.1458 18.7477 9.78858 18.191 7.68188 17.1381L3.90831 15.2513C3.55838 16.0773 3.25398 16.9127 3.04543 17.7894C2.82554 18.713 2.68427 19.6473 2.60254 20.5849C6.63156 19.7052 10.1787 20.8707 13.402 24.0942C13.7372 24.3655 15.2647 24.3663 15.6049 24.0883C17.8764 21.8158 21.2371 19.4275 26.4112 20.5927C26.3295 19.6524 26.1886 18.7153 25.9681 17.7893C25.7581 16.9064 25.4533 16.0702 25.1035 15.2461Z" fill="white"/>
<path d="M16.7999 25.296C16.6478 25.4482 16.4341 25.566 16.1992 25.668V28.1504C16.1992 28.6196 16.5796 29 17.0489 29H24.6956C25.0545 29 25.3834 28.7717 25.4972 28.4312C26.1488 26.4805 26.4441 24.3944 26.4548 22.3597C21.8845 21.1795 18.9516 23.1444 16.7999 25.296Z" fill="white"/>
<path d="M2.55859 22.3386C2.56698 24.3802 2.86174 26.4736 3.51568 28.4311C3.62942 28.7716 3.95828 28.9998 4.31728 28.9998H11.9515C12.4208 28.9998 12.8012 28.6195 12.8012 28.1502V25.6679C12.5663 25.5658 12.3526 25.448 12.2005 25.2959C10.0064 23.1019 7.07049 21.1826 2.55859 22.3386Z" fill="white"/>
</svg>
