<svg width="39" height="38" viewBox="0 0 39 38" fill="none" xmlns="http://www.w3.org/2000/svg">
<path d="M30.2806 21.6251L28.9988 23.5726L27.4115 15.5703L26.1973 19.0106C26.3838 19.5485 26.7049 20.5629 26.9539 21.7857L27.1879 21.1284L28.2006 26.2311L30.8188 22.9357H38.9997V21.6251H30.2806Z" fill="white"/>
<path d="M14.0264 7.46397C14.5061 7.22741 15.0072 7.03607 15.524 6.8906L15.0371 0.506167C15.0111 0.163453 14.6445 -0.0790018 14.3228 0.0271542L13.6624 0.249295C13.2659 0.382318 13 0.754519 13 1.17521C13 1.22894 13.0046 1.28268 13.013 1.33641L14.0264 7.46397Z" fill="white"/>
<path d="M15.2145 13.1056C16.573 13.1056 17.9062 12.6344 18.9676 11.7786C19.9875 10.9562 21.2075 10.4071 22.4952 10.1909L23.177 10.0762C21.8146 8.69942 19.9342 7.86328 17.8815 7.86328C15.4433 7.86328 13.1533 9.06507 11.7558 11.0794C11.6037 11.2989 11.4614 11.5237 11.3262 11.7511C12.3935 12.6259 13.7175 13.1056 15.1079 13.1056H15.2145Z" fill="white"/>
<path d="M0.420553 8.32604L3.09662 9.67461C4.01962 10.1399 4.69758 10.9563 5.00828 11.9255C5.44898 11.8443 5.89944 11.7951 6.36224 11.7951H6.44739C6.95634 11.7951 7.46724 11.8462 7.96515 11.9465L9.58106 12.2722C9.88331 11.611 10.2467 10.9747 10.6646 10.3679L9.31975 9.01212C8.7718 8.45972 8.43705 7.72646 8.37725 6.94667L7.8891 0.547819C7.8618 0.192 7.49649 -0.070769 7.16044 0.0170391L5.79608 0.360408C5.44508 0.450182 5.20003 0.766684 5.20003 1.13233C5.20003 1.19786 5.20783 1.26208 5.22343 1.32433L6.28164 5.59088C6.47274 6.36412 6.11329 7.15243 5.40608 7.5089C4.83603 7.79657 4.16458 7.73563 3.65367 7.34901L1.95911 6.06793C1.58601 5.78747 1.00491 5.88642 0.746204 6.27762L0.127401 7.21271C0.0442003 7.33984 0 7.48662 0 7.6393C0 7.93156 0.161201 8.19498 0.420553 8.32604Z" fill="white"/>
<path d="M4.76876 21.6242C6.83317 21.6242 8.44973 19.9663 8.44973 17.8491V17.4939C8.44973 16.125 8.66813 14.7837 9.09324 13.5104L7.71003 13.2313C7.29533 13.1481 6.87022 13.1055 6.44707 13.1055H6.36192C2.9403 13.1055 0.140734 15.9022 0.00488281 19.3923L0.416335 19.8071C1.57919 20.9787 3.1249 21.6242 4.76876 21.6242Z" fill="white"/>
<path d="M19.213 6.66059L20.7386 2.04674C20.7802 1.92224 20.801 1.79118 20.801 1.66012C20.801 1.24991 20.5988 0.869194 20.2602 0.64181L19.4249 0.0802316C19.15 -0.104558 18.7385 0.0743341 18.6846 0.403942L17.666 6.56558C17.7388 6.56361 17.8097 6.55182 17.8825 6.55182C18.3349 6.55182 18.7775 6.59376 19.213 6.66059Z" fill="white"/>
<path d="M25.1942 5.19454C25.2956 5.072 25.3508 4.91735 25.3508 4.75812C25.3508 4.49797 25.2078 4.26469 24.9771 4.14805L24.7574 4.03731C24.3121 3.81255 23.7329 3.97637 23.469 4.40296L21.6172 7.38974C22.0338 7.58698 22.431 7.82026 22.8093 8.0791L25.1942 5.19454Z" fill="white"/>
<path d="M14.95 24.2452C16.027 24.2452 16.9 23.365 16.9 22.2793C16.9 21.1936 16.027 20.3135 14.95 20.3135C13.873 20.3135 13 21.1936 13 22.2793C13 23.365 13.873 24.2452 14.95 24.2452Z" fill="white"/>
<path d="M21.4678 19.3205L20.6709 22.935H18.1339C17.8317 24.4284 16.5193 25.5562 14.9496 25.5562C13.1575 25.5562 11.6996 24.0864 11.6996 22.2798C11.6996 20.4731 13.1575 19.0033 14.9496 19.0033C16.5187 19.0033 17.8317 20.1311 18.1339 21.6245H19.6283L21.4314 13.4439L24.1107 24.9225L26.1972 19.0099C26.1082 18.7524 26.0484 18.5984 26.0458 18.5918L26.0094 18.4627L25.2443 14.0926C25.061 13.0468 24.6658 12.0881 24.1159 11.248L22.7087 11.4846C21.6394 11.6642 20.6267 12.1202 19.7797 12.803C18.4882 13.843 16.8671 14.4163 15.2141 14.4163H15.1069C13.5066 14.4163 11.9804 13.8915 10.72 12.9341C10.0862 14.3606 9.74954 15.9052 9.74954 17.4942V17.8494C9.74954 20.654 7.51483 22.935 4.76856 22.935C3.0428 22.935 1.40674 22.3479 0.0839844 21.2673C0.416786 24.3026 1.72134 27.1682 3.84231 29.4708C6.66852 32.5395 10.2006 34.9857 14.0571 36.5459L17.313 37.8611C17.8791 38.0891 18.5662 38.0479 19.0433 37.656L19.3657 37.3906C23.2501 34.1856 26.0653 29.7244 27.2996 24.8209C27.2925 23.7712 27.1449 22.7194 26.9545 21.7844L23.9892 30.1222L21.4678 19.3205Z" fill="white"/>
</svg>
