<svg width="33" height="38" viewBox="0 0 33 38" fill="none" xmlns="http://www.w3.org/2000/svg">
<path d="M30.055 2.65252C26.8755 -0.309044 23.2764 -0.305005 20.5862 0.35954C17.9061 1.02146 15.094 1.02146 12.4138 0.35954C9.7236 -0.305005 6.12454 -0.309044 2.9449 2.65252C-3.07958 8.26399 1.76827 18.2879 3.22736 20.0145C4.68646 21.7411 4.73343 24.0432 5.76893 28.7435C6.80443 33.4438 8.12219 37.9041 10.7579 37.2327C13.3936 36.5613 14.0997 33.2999 14.7586 28.9354C14.804 28.6352 14.8511 28.3536 14.8999 28.089C15.2349 26.2744 17.765 26.2744 18.1 28.089C18.1487 28.3534 18.1961 28.6352 18.2415 28.9354C18.9004 33.2999 19.6064 36.5613 22.2421 37.2327C24.8779 37.9041 26.1956 33.4438 27.2311 28.7435C28.2666 24.0432 28.3136 21.7411 29.7727 20.0145C31.2318 18.2879 36.0796 8.26399 30.055 2.65252ZM11.6539 4.83259C11.5809 5.38402 11.084 5.77144 10.5432 5.69953C10.3496 5.67509 6.05298 5.19173 4.84582 9.9716C4.73066 10.4273 4.32808 10.7301 3.88664 10.7301C3.80478 10.7301 3.72172 10.7198 3.63887 10.698C3.10883 10.559 2.7897 10.0084 2.92607 9.46825C4.24879 4.23066 8.65718 3.40352 10.8035 3.69701C11.346 3.77134 11.7266 4.27975 11.6539 4.83259Z" fill="white"/>
</svg>
