<svg width="205" height="110" viewBox="0 0 205 110" fill="none" xmlns="http://www.w3.org/2000/svg">
<g clip-path="url(#clip0_1_3719)">
<path d="M132.951 16.4914H121.509V5.04886C121.509 2.26596 119.243 0 116.46 0H89.5364C86.7535 0 84.4875 2.26596 84.4875 5.04886V16.4914H73.0489C70.266 16.4914 68 18.7535 68 21.5403V48.4636C68 51.2465 70.266 53.5125 73.0489 53.5125H84.4914V64.955C84.4914 67.7379 86.7535 70.0039 89.5403 70.0039H116.464C119.247 70.0039 121.512 67.7379 121.512 64.955V53.5125H132.955C135.738 53.5125 138.004 51.2465 138.004 48.4636V21.5403C138 18.7535 135.734 16.4914 132.951 16.4914ZM132.613 48.1255H121.509V27.2576H116.125V64.613H89.8745V53.5086H110.738V48.1255H73.3831V21.8745H84.4875V42.7385H89.8706V5.38312H116.118V16.4875H95.2615V21.8706H132.617V48.1255H132.613Z" fill="url(#paint0_linear_1_3719)"/>
</g>
<path d="M30.9722 105C30.7888 105 30.6388 104.942 30.5222 104.825C30.4055 104.708 30.3472 104.558 30.3472 104.375V88.125C30.3472 87.9417 30.4055 87.7917 30.5222 87.675C30.6388 87.5583 30.7888 87.5 30.9722 87.5H34.1972C34.3805 87.5 34.5305 87.5583 34.6472 87.675C34.7638 87.7917 34.8222 87.9417 34.8222 88.125V94.15H40.9972V88.125C40.9972 87.9417 41.0555 87.7917 41.1722 87.675C41.2888 87.5583 41.4388 87.5 41.6222 87.5H44.8472C45.0305 87.5 45.1805 87.5583 45.2972 87.675C45.4138 87.7917 45.4722 87.9417 45.4722 88.125V104.375C45.4722 104.558 45.4138 104.708 45.2972 104.825C45.1805 104.942 45.0305 105 44.8472 105H41.6222C41.4388 105 41.2888 104.942 41.1722 104.825C41.0555 104.708 40.9972 104.558 40.9972 104.375V98.15H34.8222V104.375C34.8222 104.558 34.7638 104.708 34.6472 104.825C34.5305 104.942 34.3805 105 34.1972 105H30.9722ZM54.4001 105.25C52.4334 105.25 50.8668 104.717 49.7001 103.65C48.5334 102.583 47.9251 101 47.8751 98.9C47.8751 98.7833 47.8751 98.6333 47.8751 98.45C47.8751 98.2667 47.8751 98.125 47.8751 98.025C47.9251 96.7083 48.2168 95.5833 48.7501 94.65C49.3001 93.7 50.0501 92.9833 51.0001 92.5C51.9668 92 53.0918 91.75 54.3751 91.75C55.8418 91.75 57.0501 92.0417 58.0001 92.625C58.9668 93.2083 59.6918 94 60.1751 95C60.6584 96 60.9001 97.1417 60.9001 98.425V99.025C60.9001 99.2083 60.8334 99.3583 60.7001 99.475C60.5834 99.5917 60.4418 99.65 60.2751 99.65H52.2751C52.2751 99.6667 52.2751 99.6917 52.2751 99.725C52.2751 99.7583 52.2751 99.7917 52.2751 99.825C52.2918 100.308 52.3751 100.75 52.5251 101.15C52.6751 101.55 52.9084 101.867 53.2251 102.1C53.5418 102.333 53.9251 102.45 54.3751 102.45C54.7084 102.45 54.9834 102.4 55.2001 102.3C55.4334 102.183 55.6251 102.058 55.7751 101.925C55.9251 101.775 56.0418 101.65 56.1251 101.55C56.2751 101.383 56.3918 101.283 56.4751 101.25C56.5751 101.2 56.7251 101.175 56.9251 101.175H60.0251C60.1918 101.175 60.3251 101.225 60.4251 101.325C60.5418 101.408 60.5918 101.533 60.5751 101.7C60.5584 101.983 60.4168 102.325 60.1501 102.725C59.8834 103.125 59.4918 103.525 58.9751 103.925C58.4751 104.308 57.8418 104.625 57.0751 104.875C56.3084 105.125 55.4168 105.25 54.4001 105.25ZM52.2751 97.175H56.5001V97.125C56.5001 96.5917 56.4168 96.125 56.2501 95.725C56.1001 95.325 55.8584 95.0167 55.5251 94.8C55.2084 94.5833 54.8251 94.475 54.3751 94.475C53.9251 94.475 53.5418 94.5833 53.2251 94.8C52.9251 95.0167 52.6918 95.325 52.5251 95.725C52.3584 96.125 52.2751 96.5917 52.2751 97.125V97.175ZM66.8438 105.25C65.9438 105.25 65.1355 105.083 64.4188 104.75C63.7188 104.4 63.1605 103.933 62.7438 103.35C62.3272 102.767 62.1188 102.108 62.1188 101.375C62.1188 100.192 62.6022 99.2583 63.5688 98.575C64.5355 97.875 65.8188 97.4 67.4188 97.15L70.5438 96.675V96.325C70.5438 95.725 70.4188 95.2667 70.1688 94.95C69.9188 94.6333 69.4605 94.475 68.7938 94.475C68.3272 94.475 67.9438 94.5667 67.6438 94.75C67.3605 94.9333 67.1355 95.1833 66.9688 95.5C66.8188 95.7167 66.6105 95.825 66.3438 95.825H63.5438C63.3605 95.825 63.2188 95.775 63.1188 95.675C63.0188 95.5583 62.9772 95.425 62.9938 95.275C62.9938 94.975 63.1022 94.6333 63.3188 94.25C63.5522 93.85 63.9022 93.4583 64.3688 93.075C64.8355 92.6917 65.4355 92.375 66.1688 92.125C66.9022 91.875 67.7855 91.75 68.8188 91.75C69.9022 91.75 70.8272 91.875 71.5938 92.125C72.3605 92.375 72.9772 92.725 73.4438 93.175C73.9272 93.625 74.2855 94.1583 74.5188 94.775C74.7522 95.375 74.8688 96.0417 74.8688 96.775V104.375C74.8688 104.558 74.8022 104.708 74.6688 104.825C74.5522 104.942 74.4105 105 74.2439 105H71.3438C71.1605 105 71.0105 104.942 70.8938 104.825C70.7772 104.708 70.7188 104.558 70.7188 104.375V103.5C70.5022 103.817 70.2105 104.108 69.8438 104.375C69.4772 104.642 69.0438 104.85 68.5438 105C68.0605 105.167 67.4938 105.25 66.8438 105.25ZM68.0188 102.4C68.5022 102.4 68.9355 102.3 69.3188 102.1C69.7188 101.883 70.0272 101.558 70.2438 101.125C70.4772 100.675 70.5938 100.117 70.5938 99.45V99.1L68.4688 99.475C67.6855 99.6083 67.1105 99.8167 66.7438 100.1C66.3938 100.367 66.2188 100.683 66.2188 101.05C66.2188 101.333 66.3022 101.575 66.4688 101.775C66.6355 101.975 66.8522 102.133 67.1188 102.25C67.3855 102.35 67.6855 102.4 68.0188 102.4ZM78.0149 105C77.8316 105 77.6816 104.942 77.5649 104.825C77.4483 104.708 77.3899 104.558 77.3899 104.375V87.875C77.3899 87.6917 77.4483 87.5417 77.5649 87.425C77.6816 87.3083 77.8316 87.25 78.0149 87.25H80.9649C81.1483 87.25 81.2983 87.3083 81.4149 87.425C81.5316 87.5417 81.5899 87.6917 81.5899 87.875V104.375C81.5899 104.558 81.5316 104.708 81.4149 104.825C81.2983 104.942 81.1483 105 80.9649 105H78.0149ZM90.8933 105C89.8266 105 88.9016 104.833 88.1183 104.5C87.3516 104.15 86.7599 103.617 86.3433 102.9C85.9266 102.167 85.7183 101.225 85.7183 100.075V95.275H83.7683C83.5849 95.275 83.4266 95.2167 83.2933 95.1C83.1766 94.9833 83.1183 94.8333 83.1183 94.65V92.625C83.1183 92.4417 83.1766 92.2917 83.2933 92.175C83.4266 92.0583 83.5849 92 83.7683 92H85.7183V87.875C85.7183 87.6917 85.7766 87.5417 85.8933 87.425C86.0266 87.3083 86.1766 87.25 86.3433 87.25H89.2433C89.4266 87.25 89.5766 87.3083 89.6933 87.425C89.8099 87.5417 89.8683 87.6917 89.8683 87.875V92H92.9933C93.1766 92 93.3266 92.0583 93.4433 92.175C93.5599 92.2917 93.6183 92.4417 93.6183 92.625V94.65C93.6183 94.8333 93.5599 94.9833 93.4433 95.1C93.3266 95.2167 93.1766 95.275 92.9933 95.275H89.8683V99.725C89.8683 100.292 89.9766 100.742 90.1933 101.075C90.4099 101.408 90.7766 101.575 91.2933 101.575H93.2183C93.4016 101.575 93.5516 101.633 93.6683 101.75C93.7849 101.867 93.8433 102.017 93.8433 102.2V104.375C93.8433 104.558 93.7849 104.708 93.6683 104.825C93.5516 104.942 93.4016 105 93.2183 105H90.8933ZM96.2382 105C96.0549 105 95.9049 104.942 95.7882 104.825C95.6715 104.708 95.6132 104.558 95.6132 104.375V87.875C95.6132 87.6917 95.6715 87.5417 95.7882 87.425C95.9049 87.3083 96.0549 87.25 96.2382 87.25H99.4382C99.6215 87.25 99.7715 87.3083 99.8882 87.425C100.005 87.5417 100.063 87.6917 100.063 87.875V93.45C100.513 92.9333 101.063 92.525 101.713 92.225C102.38 91.9083 103.147 91.75 104.013 91.75C104.98 91.75 105.838 91.9667 106.588 92.4C107.355 92.8333 107.955 93.475 108.388 94.325C108.822 95.1583 109.038 96.1833 109.038 97.4V104.375C109.038 104.558 108.98 104.708 108.863 104.825C108.747 104.942 108.597 105 108.413 105H105.188C105.022 105 104.872 104.942 104.738 104.825C104.622 104.708 104.563 104.558 104.563 104.375V97.55C104.563 96.7667 104.372 96.1667 103.988 95.75C103.622 95.3167 103.072 95.1 102.338 95.1C101.655 95.1 101.105 95.3167 100.688 95.75C100.272 96.1667 100.063 96.7667 100.063 97.55V104.375C100.063 104.558 100.005 104.708 99.8882 104.825C99.7715 104.942 99.6215 105 99.4382 105H96.2382ZM123.395 105.25C121.729 105.25 120.345 105.017 119.245 104.55C118.145 104.067 117.312 103.442 116.745 102.675C116.179 101.908 115.879 101.092 115.845 100.225C115.845 100.092 115.895 99.975 115.995 99.875C116.112 99.7583 116.245 99.7 116.395 99.7H119.545C119.779 99.7 119.954 99.7417 120.07 99.825C120.204 99.9083 120.32 100.017 120.42 100.15C120.554 100.4 120.737 100.642 120.97 100.875C121.22 101.108 121.537 101.3 121.92 101.45C122.32 101.583 122.812 101.65 123.395 101.65C124.362 101.65 125.087 101.5 125.57 101.2C126.07 100.9 126.32 100.492 126.32 99.975C126.32 99.6083 126.187 99.3083 125.92 99.075C125.654 98.825 125.22 98.6083 124.62 98.425C124.037 98.225 123.254 98.025 122.27 97.825C121.004 97.5583 119.92 97.2167 119.02 96.8C118.137 96.3667 117.462 95.8083 116.995 95.125C116.529 94.425 116.295 93.5583 116.295 92.525C116.295 91.5083 116.579 90.6 117.145 89.8C117.729 89 118.537 88.375 119.57 87.925C120.604 87.475 121.829 87.25 123.245 87.25C124.395 87.25 125.404 87.4 126.27 87.7C127.154 88 127.895 88.4 128.495 88.9C129.095 89.4 129.545 89.9333 129.845 90.5C130.162 91.05 130.329 91.5917 130.345 92.125C130.345 92.2583 130.295 92.3833 130.195 92.5C130.095 92.6 129.97 92.65 129.82 92.65H126.52C126.337 92.65 126.179 92.6167 126.045 92.55C125.912 92.4833 125.795 92.375 125.695 92.225C125.595 91.8583 125.329 91.5417 124.895 91.275C124.479 90.9917 123.929 90.85 123.245 90.85C122.512 90.85 121.937 90.9833 121.52 91.25C121.12 91.5 120.92 91.8917 120.92 92.425C120.92 92.7583 121.029 93.05 121.245 93.3C121.479 93.55 121.854 93.7667 122.37 93.95C122.904 94.1333 123.629 94.325 124.545 94.525C126.062 94.8083 127.287 95.1667 128.22 95.6C129.154 96.0167 129.837 96.5667 130.27 97.25C130.704 97.9167 130.92 98.7583 130.92 99.775C130.92 100.908 130.595 101.892 129.945 102.725C129.312 103.542 128.429 104.167 127.295 104.6C126.162 105.033 124.862 105.25 123.395 105.25ZM135.2 109.75C135.05 109.75 134.925 109.7 134.825 109.6C134.725 109.5 134.675 109.375 134.675 109.225C134.675 109.192 134.675 109.142 134.675 109.075C134.691 109.025 134.716 108.967 134.75 108.9L136.7 104.2L131.9 92.85C131.85 92.7333 131.825 92.6333 131.825 92.55C131.858 92.4 131.925 92.275 132.025 92.175C132.125 92.0583 132.25 92 132.4 92H135.25C135.466 92 135.625 92.0583 135.725 92.175C135.841 92.275 135.916 92.3917 135.95 92.525L138.825 99.8L141.75 92.525C141.816 92.3917 141.9 92.275 142 92.175C142.116 92.0583 142.283 92 142.5 92H145.3C145.45 92 145.575 92.0583 145.675 92.175C145.791 92.275 145.85 92.3917 145.85 92.525C145.85 92.6083 145.825 92.7167 145.775 92.85L138.7 109.225C138.65 109.358 138.566 109.475 138.45 109.575C138.333 109.692 138.166 109.75 137.95 109.75H135.2ZM148.017 105C147.833 105 147.683 104.942 147.567 104.825C147.45 104.708 147.392 104.558 147.392 104.375V92.625C147.392 92.4417 147.45 92.2917 147.567 92.175C147.683 92.0583 147.833 92 148.017 92H150.892C151.075 92 151.225 92.0583 151.342 92.175C151.458 92.2917 151.517 92.4417 151.517 92.625V93.575C151.95 93.0583 152.517 92.625 153.217 92.275C153.917 91.925 154.742 91.75 155.692 91.75C156.658 91.75 157.508 91.9667 158.242 92.4C158.992 92.8333 159.575 93.475 159.992 94.325C160.425 95.1583 160.642 96.1833 160.642 97.4V104.375C160.642 104.558 160.575 104.708 160.442 104.825C160.325 104.942 160.183 105 160.017 105H156.867C156.7 105 156.55 104.942 156.417 104.825C156.3 104.708 156.242 104.558 156.242 104.375V97.55C156.242 96.7667 156.05 96.1667 155.667 95.75C155.3 95.3167 154.75 95.1 154.017 95.1C153.333 95.1 152.783 95.3167 152.367 95.75C151.967 96.1667 151.767 96.7667 151.767 97.55V104.375C151.767 104.558 151.7 104.708 151.567 104.825C151.45 104.942 151.308 105 151.142 105H148.017ZM169.107 105.25C167.873 105.25 166.782 105.025 165.832 104.575C164.882 104.125 164.123 103.475 163.557 102.625C163.007 101.758 162.707 100.725 162.657 99.525C162.64 99.2583 162.632 98.925 162.632 98.525C162.632 98.1083 162.64 97.7667 162.657 97.5C162.707 96.2833 163.007 95.25 163.557 94.4C164.107 93.5333 164.857 92.875 165.807 92.425C166.773 91.975 167.873 91.75 169.107 91.75C170.257 91.75 171.24 91.9167 172.057 92.25C172.873 92.5667 173.54 92.9667 174.057 93.45C174.573 93.9333 174.957 94.4333 175.207 94.95C175.473 95.45 175.615 95.8917 175.632 96.275C175.648 96.4417 175.59 96.5917 175.457 96.725C175.323 96.8417 175.173 96.9 175.007 96.9H171.832C171.648 96.9 171.507 96.8583 171.407 96.775C171.307 96.6917 171.215 96.5667 171.132 96.4C170.932 95.8833 170.673 95.5167 170.357 95.3C170.057 95.0833 169.665 94.975 169.182 94.975C168.515 94.975 167.998 95.1917 167.632 95.625C167.282 96.0583 167.09 96.725 167.057 97.625C167.04 98.2917 167.04 98.8833 167.057 99.4C167.09 100.317 167.282 100.983 167.632 101.4C167.998 101.817 168.515 102.025 169.182 102.025C169.698 102.025 170.107 101.917 170.407 101.7C170.707 101.483 170.948 101.117 171.132 100.6C171.215 100.433 171.307 100.308 171.407 100.225C171.507 100.142 171.648 100.1 171.832 100.1H175.007C175.173 100.1 175.323 100.167 175.457 100.3C175.59 100.417 175.648 100.558 175.632 100.725C175.615 101.008 175.532 101.342 175.382 101.725C175.232 102.092 174.998 102.483 174.682 102.9C174.365 103.317 173.948 103.708 173.432 104.075C172.932 104.425 172.323 104.708 171.607 104.925C170.89 105.142 170.057 105.25 169.107 105.25Z" fill="#222222"/>
<defs>
<linearGradient id="paint0_linear_1_3719" x1="68" y1="3.58994" x2="144.397" y2="18.4545" gradientUnits="userSpaceOnUse">
<stop stop-color="#0EBE7E"/>
<stop offset="1" stop-color="#07D9AD"/>
</linearGradient>
<clipPath id="clip0_1_3719">
<rect width="70" height="70" fill="white" transform="translate(68)"/>
</clipPath>
</defs>
</svg>
